<svg version="1.1" id="Layer_1" xmlns="http://www.w3.org/2000/svg" xmlns:xlink="http://www.w3.org/1999/xlink" x="0px" y="0px"
	 width="100%" viewBox="0 0 370 387" enable-background="new 0 0 370 387" xml:space="preserve">
<path fill="#000000" opacity="1.000000" stroke="none" 
	d="
M45.000004,388.000000 
	C30.340174,388.000000 15.680347,388.000000 1.015391,388.000000 
	C1.010261,259.067017 1.010261,130.134018 1.010261,1.100511 
	C124.333298,1.100511 247.666641,1.100511 371.000000,1.100511 
	C371.000000,46.438343 371.000000,91.750511 370.782684,137.871796 
	C369.216980,137.455414 367.816650,136.281998 366.528259,134.996384 
	C352.611450,121.109634 338.667511,107.249504 324.842743,93.271584 
	C321.761017,90.155746 319.659332,89.527412 316.130707,93.176926 
	C302.351288,107.428482 288.245209,121.366913 274.116882,135.275803 
	C271.783752,137.572693 270.928741,139.862778 270.935638,143.084290 
	C271.030914,187.570023 271.000000,232.056000 271.000000,276.541931 
	C271.000000,278.293610 271.000000,280.045319 271.000000,282.000000 
	C304.821716,282.000000 337.910858,282.000000 371.000000,282.000000 
	C371.000000,317.297272 371.000000,352.594574 371.000000,388.000000 
	C263.645782,388.000000 156.291550,388.000000 48.369995,387.582214 
	C49.644600,386.776001 51.471611,386.283508 53.331017,386.016937 
	C61.906147,384.787628 69.997543,382.390320 73.958992,373.818848 
	C77.590782,365.960602 76.487396,358.301086 71.621643,350.962128 
	C67.061089,344.083496 59.750797,341.988708 52.849190,339.059784 
	C48.180149,337.078339 43.183495,335.659760 38.910793,333.045624 
	C36.909313,331.821106 35.089432,328.224091 35.361774,325.964417 
	C35.615059,323.862915 38.424149,321.184692 40.687309,320.370422 
	C48.525372,317.550446 56.704552,320.133881 58.687111,329.749512 
	C64.289452,329.749512 69.902710,329.749512 75.930710,329.749512 
	C75.778610,322.011444 73.309105,315.413177 67.203247,311.179291 
	C54.682518,302.497192 41.251019,302.874817 27.846127,309.092957 
	C19.175413,313.114990 14.683472,323.791321 17.522236,332.975067 
	C20.344414,342.105164 27.362232,346.834625 35.828335,350.082916 
	C42.222721,352.536377 48.722836,354.886536 54.739101,358.100311 
	C59.809124,360.808655 59.409580,368.280762 54.060448,370.203247 
	C50.090347,371.630127 45.356377,371.909821 41.120926,371.395966 
	C34.400448,370.580688 32.497929,364.865448 31.458982,359.011475 
	C26.556305,359.011475 22.053402,358.840302 17.580305,359.129852 
	C16.439005,359.203705 14.504221,360.710968 14.477329,361.606049 
	C14.410766,363.821564 15.137534,366.090271 15.721314,368.290985 
	C18.650251,379.332489 29.742025,384.889648 40.532059,386.068268 
	C42.073315,386.236633 43.513203,387.333069 45.000004,388.000000 
M124.000366,90.500015 
	C124.000366,154.245743 124.000366,217.991470 124.000366,281.606171 
	C133.077347,281.606171 141.468094,281.606171 150.000015,281.606171 
	C150.000015,252.388550 149.958572,223.564835 150.086548,194.741882 
	C150.095779,192.660385 150.738525,190.000473 152.102722,188.597229 
	C164.062653,176.295074 176.253708,164.217606 188.473709,151.975876 
	C200.367828,163.873062 212.232239,175.568787 223.826996,187.526001 
	C225.538605,189.291138 226.846603,192.287231 226.865646,194.725327 
	C227.077789,221.885574 226.999466,249.048065 226.999481,276.209961 
	C226.999481,277.993866 226.999466,279.777771 226.999466,281.697144 
	C235.888382,281.697144 244.275772,281.697144 252.999344,281.697144 
	C252.999344,280.258667 252.999344,279.121582 252.999344,277.984497 
	C252.999420,208.663330 253.025055,139.342102 252.878815,70.021255 
	C252.874313,67.895752 251.590576,65.263519 250.047211,63.727818 
	C229.885406,43.666050 209.569199,23.759481 189.288422,3.817324 
	C189.052109,3.584950 188.771423,3.397700 188.241196,2.972859 
	C183.840118,7.469006 179.486877,12.063354 174.976395,16.497770 
	C158.851654,32.350578 142.628113,48.103405 126.593918,64.046890 
	C125.166473,65.466263 124.214653,67.961617 124.115936,70.009041 
	C123.803314,76.492821 124.000389,83.001190 124.000366,90.500015 
M49.500000,282.000519 
	C67.253067,282.000519 85.006134,282.000519 102.706230,282.000519 
	C102.859711,280.824280 102.978081,280.340118 102.978218,279.855896 
	C102.991051,234.033401 103.024933,188.210815 102.889397,142.388733 
	C102.883972,140.554703 101.679459,138.317764 100.336380,136.956512 
	C85.591667,122.012444 70.711617,107.201866 55.854370,92.369003 
	C54.950867,91.466995 53.929596,90.682938 52.861084,89.755424 
	C37.080875,105.504364 21.575201,121.081100 5.911413,136.497177 
	C3.682174,138.691162 2.936860,140.861298 2.942571,143.887299 
	C3.026221,188.210022 2.997713,232.532959 3.009658,276.855835 
	C3.010091,278.463562 3.151276,280.071228 3.241984,282.000519 
	C18.566475,282.000519 33.533237,282.000519 49.500000,282.000519 
M334.005371,370.495239 
	C338.405518,358.319641 342.805664,346.144043 347.675415,332.668945 
	C346.980377,350.963867 346.342773,367.747223 345.704010,384.560730 
	C352.379669,384.560730 358.082458,384.560730 363.640381,384.560730 
	C363.640381,358.208496 363.640381,332.296967 363.640381,306.200684 
	C355.999023,306.200684 348.717560,306.200684 341.431305,306.200684 
	C335.131104,323.980743 328.893555,341.584045 322.495758,359.639496 
	C321.827698,358.396820 321.340240,357.713562 321.069305,356.953186 
	C315.406769,341.061066 309.805756,325.146790 304.055725,309.286530 
	C303.595337,308.016632 302.176605,306.215729 301.142609,306.174255 
	C294.224182,305.896973 287.289307,306.030212 280.292847,306.030212 
	C280.292847,332.639954 280.292847,358.549561 280.292847,384.603760 
	C286.289856,384.603760 291.989899,384.603760 297.500000,384.603760 
	C297.500000,367.908783 297.500000,351.610718 297.500000,334.681580 
	C298.142334,336.382172 298.598816,337.561615 299.034515,338.748688 
	C304.341003,353.206940 309.609558,367.679321 315.015808,382.100159 
	C315.442200,383.237518 316.689362,384.634003 317.777496,384.865723 
	C325.660767,386.544556 328.361938,384.972046 331.189972,377.626678 
	C332.015778,375.481781 332.997711,373.396973 334.005371,370.495239 
M104.905060,313.358368 
	C96.117432,336.957794 87.329796,360.557190 78.332993,384.718353 
	C85.401634,384.718353 91.492226,384.718353 97.535606,384.718353 
	C99.028625,380.432281 100.262871,376.163300 102.055862,372.143555 
	C102.666580,370.774384 104.644279,369.211121 106.064117,369.143829 
	C112.713196,368.828400 119.394165,368.826141 126.042587,369.148285 
	C127.434395,369.215759 129.347321,370.852661 129.965942,372.237305 
	C131.807495,376.359314 133.124344,380.715759 134.527267,384.647339 
	C140.926636,384.647339 146.834747,384.647339 153.050095,384.647339 
	C152.791916,383.465576 152.713455,382.655365 152.439423,381.917877 
	C144.623306,360.881836 136.843018,339.832153 128.909454,318.840424 
	C127.267532,314.496002 126.102028,308.491333 122.810692,306.639008 
	C119.012466,304.501373 113.102745,306.113831 108.109886,306.108612 
	C107.955917,306.108459 107.801811,306.227448 107.536491,306.336761 
	C106.748131,308.367188 105.929359,310.475952 104.905060,313.358368 
M249.499939,305.999634 
	C239.083893,305.999634 228.667847,305.999634 218.352631,305.999634 
	C218.352631,332.752563 218.352631,358.666901 218.352631,384.721954 
	C236.287415,384.721954 253.869019,384.721954 271.615295,384.721954 
	C271.615295,380.070831 271.615295,375.703430 271.615295,370.856842 
	C259.647705,370.856842 248.057983,370.856842 236.420837,370.856842 
	C236.420837,364.328918 236.420837,358.292511 236.420837,351.787109 
	C246.760666,351.787109 256.685913,351.787109 266.999329,351.787109 
	C266.999329,348.838043 267.001190,346.367645 266.998962,343.897247 
	C266.992767,337.025665 266.992096,337.021545 260.186981,337.017578 
	C252.253998,337.012970 244.321014,337.016510 236.278732,337.016510 
	C236.278732,331.051819 236.278732,325.800507 236.278732,319.893433 
	C248.255814,319.893433 259.970367,319.893433 271.687256,319.893433 
	C271.687256,314.978119 271.687256,310.725281 271.687256,305.999634 
	C264.420410,305.999634 257.460114,305.999634 249.499939,305.999634 
M188.523148,371.000305 
	C184.775009,371.000305 181.026871,371.000305 176.847992,371.000305 
	C176.847992,348.950928 176.847992,327.711578 176.847992,306.403198 
	C170.693314,306.403198 164.992844,306.403198 159.303131,306.403198 
	C159.303131,332.704651 159.303131,358.601501 159.303131,384.611206 
	C176.631729,384.611206 193.654495,384.611206 210.684723,384.611206 
	C210.684723,379.967590 210.684723,375.718750 210.684723,371.000305 
	C203.422562,371.000305 196.468781,371.000305 188.523148,371.000305 
z"/>
<path fill="#4EB9B6" opacity="1.000000" stroke="none" 
	d="
M371.000000,281.531342 
	C337.910858,282.000000 304.821716,282.000000 271.000000,282.000000 
	C271.000000,280.045319 271.000000,278.293610 271.000000,276.541931 
	C271.000000,232.056000 271.030914,187.570023 270.935638,143.084290 
	C270.928741,139.862778 271.783752,137.572693 274.116882,135.275803 
	C288.245209,121.366913 302.351288,107.428482 316.130707,93.176926 
	C319.659332,89.527412 321.761017,90.155746 324.842743,93.271584 
	C338.667511,107.249504 352.611450,121.109634 366.528259,134.996384 
	C367.816650,136.281998 369.216980,137.455414 370.782684,138.340454 
	C371.000000,185.687561 371.000000,233.375122 371.000000,281.531342 
z"/>
<path fill="#423BB3" opacity="1.000000" stroke="none" 
	d="
M45.375004,388.000000 
	C43.513203,387.333069 42.073315,386.236633 40.532059,386.068268 
	C29.742025,384.889648 18.650251,379.332489 15.721314,368.290985 
	C15.137534,366.090271 14.410766,363.821564 14.477329,361.606049 
	C14.504221,360.710968 16.439005,359.203705 17.580305,359.129852 
	C22.053402,358.840302 26.556305,359.011475 31.458982,359.011475 
	C32.497929,364.865448 34.400448,370.580688 41.120926,371.395966 
	C45.356377,371.909821 50.090347,371.630127 54.060448,370.203247 
	C59.409580,368.280762 59.809124,360.808655 54.739101,358.100311 
	C48.722836,354.886536 42.222721,352.536377 35.828335,350.082916 
	C27.362232,346.834625 20.344414,342.105164 17.522236,332.975067 
	C14.683472,323.791321 19.175413,313.114990 27.846127,309.092957 
	C41.251019,302.874817 54.682518,302.497192 67.203247,311.179291 
	C73.309105,315.413177 75.778610,322.011444 75.930710,329.749512 
	C69.902710,329.749512 64.289452,329.749512 58.687111,329.749512 
	C56.704552,320.133881 48.525372,317.550446 40.687309,320.370422 
	C38.424149,321.184692 35.615059,323.862915 35.361774,325.964417 
	C35.089432,328.224091 36.909313,331.821106 38.910793,333.045624 
	C43.183495,335.659760 48.180149,337.078339 52.849190,339.059784 
	C59.750797,341.988708 67.061089,344.083496 71.621643,350.962128 
	C76.487396,358.301086 77.590782,365.960602 73.958992,373.818848 
	C69.997543,382.390320 61.906147,384.787628 53.331017,386.016937 
	C51.471611,386.283508 49.644600,386.776001 47.901337,387.582214 
	C47.250000,388.000000 46.500000,388.000000 45.375004,388.000000 
z"/>
<path fill="#4EB9B6" opacity="1.000000" stroke="none" 
	d="
M124.000366,90.000031 
	C124.000389,83.001190 123.803314,76.492821 124.115936,70.009041 
	C124.214653,67.961617 125.166473,65.466263 126.593918,64.046890 
	C142.628113,48.103405 158.851654,32.350578 174.976395,16.497770 
	C179.486877,12.063354 183.840118,7.469006 188.241196,2.972859 
	C188.771423,3.397700 189.052109,3.584950 189.288422,3.817324 
	C209.569199,23.759481 229.885406,43.666050 250.047211,63.727818 
	C251.590576,65.263519 252.874313,67.895752 252.878815,70.021255 
	C253.025055,139.342102 252.999420,208.663330 252.999344,277.984497 
	C252.999344,279.121582 252.999344,280.258667 252.999344,281.697144 
	C244.275772,281.697144 235.888382,281.697144 226.999466,281.697144 
	C226.999466,279.777771 226.999481,277.993866 226.999481,276.209961 
	C226.999466,249.048065 227.077789,221.885574 226.865646,194.725327 
	C226.846603,192.287231 225.538605,189.291138 223.826996,187.526001 
	C212.232239,175.568787 200.367828,163.873062 188.473709,151.975876 
	C176.253708,164.217606 164.062653,176.295074 152.102722,188.597229 
	C150.738525,190.000473 150.095779,192.660385 150.086548,194.741882 
	C149.958572,223.564835 150.000015,252.388550 150.000015,281.606171 
	C141.468094,281.606171 133.077347,281.606171 124.000366,281.606171 
	C124.000366,217.991470 124.000366,154.245743 124.000366,90.000031 
z"/>
<path fill="#4EB9B6" opacity="1.000000" stroke="none" 
	d="
M49.000000,282.000519 
	C33.533237,282.000519 18.566475,282.000519 3.241984,282.000519 
	C3.151276,280.071228 3.010091,278.463562 3.009658,276.855835 
	C2.997713,232.532959 3.026221,188.210022 2.942571,143.887299 
	C2.936860,140.861298 3.682174,138.691162 5.911413,136.497177 
	C21.575201,121.081100 37.080875,105.504364 52.861084,89.755424 
	C53.929596,90.682938 54.950867,91.466995 55.854370,92.369003 
	C70.711617,107.201866 85.591667,122.012444 100.336380,136.956512 
	C101.679459,138.317764 102.883972,140.554703 102.889397,142.388733 
	C103.024933,188.210815 102.991051,234.033401 102.978218,279.855896 
	C102.978081,280.340118 102.859711,280.824280 102.706230,282.000519 
	C85.006134,282.000519 67.253067,282.000519 49.000000,282.000519 
z"/>
<path fill="#423BB3" opacity="1.000000" stroke="none" 
	d="
M333.956726,370.889954 
	C332.997711,373.396973 332.015778,375.481781 331.189972,377.626678 
	C328.361938,384.972046 325.660767,386.544556 317.777496,384.865723 
	C316.689362,384.634003 315.442200,383.237518 315.015808,382.100159 
	C309.609558,367.679321 304.341003,353.206940 299.034515,338.748688 
	C298.598816,337.561615 298.142334,336.382172 297.500000,334.681580 
	C297.500000,351.610718 297.500000,367.908783 297.500000,384.603760 
	C291.989899,384.603760 286.289856,384.603760 280.292847,384.603760 
	C280.292847,358.549561 280.292847,332.639954 280.292847,306.030212 
	C287.289307,306.030212 294.224182,305.896973 301.142609,306.174255 
	C302.176605,306.215729 303.595337,308.016632 304.055725,309.286530 
	C309.805756,325.146790 315.406769,341.061066 321.069305,356.953186 
	C321.340240,357.713562 321.827698,358.396820 322.495758,359.639496 
	C328.893555,341.584045 335.131104,323.980743 341.431305,306.200684 
	C348.717560,306.200684 355.999023,306.200684 363.640381,306.200684 
	C363.640381,332.296967 363.640381,358.208496 363.640381,384.560730 
	C358.082458,384.560730 352.379669,384.560730 345.704010,384.560730 
	C346.342773,367.747223 346.980377,350.963867 347.675415,332.668945 
	C342.805664,346.144043 338.405518,358.319641 333.956726,370.889954 
z"/>
<path fill="#423BB3" opacity="1.000000" stroke="none" 
	d="
M105.007828,312.971527 
	C105.929359,310.475952 106.748131,308.367188 107.536491,306.336761 
	C107.801811,306.227448 107.955917,306.108459 108.109886,306.108612 
	C113.102745,306.113831 119.012466,304.501373 122.810692,306.639008 
	C126.102028,308.491333 127.267532,314.496002 128.909454,318.840424 
	C136.843018,339.832153 144.623306,360.881836 152.439423,381.917877 
	C152.713455,382.655365 152.791916,383.465576 153.050095,384.647339 
	C146.834747,384.647339 140.926636,384.647339 134.527267,384.647339 
	C133.124344,380.715759 131.807495,376.359314 129.965942,372.237305 
	C129.347321,370.852661 127.434395,369.215759 126.042587,369.148285 
	C119.394165,368.826141 112.713196,368.828400 106.064117,369.143829 
	C104.644279,369.211121 102.666580,370.774384 102.055862,372.143555 
	C100.262871,376.163300 99.028625,380.432281 97.535606,384.718353 
	C91.492226,384.718353 85.401634,384.718353 78.332993,384.718353 
	C87.329796,360.557190 96.117432,336.957794 105.007828,312.971527 
M117.404449,355.000061 
	C119.503777,355.000061 121.603096,355.000061 124.468765,355.000061 
	C121.628235,346.507812 119.044640,338.783691 116.461037,331.059540 
	C116.118088,331.094452 115.775146,331.129333 115.432198,331.164215 
	C112.894951,338.910706 110.357697,346.657166 107.625092,355.000061 
	C111.191063,355.000061 113.828461,355.000061 117.404449,355.000061 
z"/>
<path fill="#423BB3" opacity="1.000000" stroke="none" 
	d="
M249.999893,305.999634 
	C257.460114,305.999634 264.420410,305.999634 271.687256,305.999634 
	C271.687256,310.725281 271.687256,314.978119 271.687256,319.893433 
	C259.970367,319.893433 248.255814,319.893433 236.278732,319.893433 
	C236.278732,325.800507 236.278732,331.051819 236.278732,337.016510 
	C244.321014,337.016510 252.253998,337.012970 260.186981,337.017578 
	C266.992096,337.021545 266.992767,337.025665 266.998962,343.897247 
	C267.001190,346.367645 266.999329,348.838043 266.999329,351.787109 
	C256.685913,351.787109 246.760666,351.787109 236.420837,351.787109 
	C236.420837,358.292511 236.420837,364.328918 236.420837,370.856842 
	C248.057983,370.856842 259.647705,370.856842 271.615295,370.856842 
	C271.615295,375.703430 271.615295,380.070831 271.615295,384.721954 
	C253.869019,384.721954 236.287415,384.721954 218.352631,384.721954 
	C218.352631,358.666901 218.352631,332.752563 218.352631,305.999634 
	C228.667847,305.999634 239.083893,305.999634 249.999893,305.999634 
z"/>
<path fill="#423BB3" opacity="1.000000" stroke="none" 
	d="
M189.019073,371.000305 
	C196.468781,371.000305 203.422562,371.000305 210.684723,371.000305 
	C210.684723,375.718750 210.684723,379.967590 210.684723,384.611206 
	C193.654495,384.611206 176.631729,384.611206 159.303131,384.611206 
	C159.303131,358.601501 159.303131,332.704651 159.303131,306.403198 
	C164.992844,306.403198 170.693314,306.403198 176.847992,306.403198 
	C176.847992,327.711578 176.847992,348.950928 176.847992,371.000305 
	C181.026871,371.000305 184.775009,371.000305 189.019073,371.000305 
z"/>
<path fill="#000000" opacity="1.000000" stroke="none" 
	d="
M116.935158,355.000061 
	C113.828461,355.000061 111.191063,355.000061 107.625092,355.000061 
	C110.357697,346.657166 112.894951,338.910706 115.432198,331.164215 
	C115.775146,331.129333 116.118088,331.094452 116.461037,331.059540 
	C119.044640,338.783691 121.628235,346.507812 124.468765,355.000061 
	C121.603096,355.000061 119.503777,355.000061 116.935158,355.000061 
z"/>
</svg>